<?xml version="1.0" encoding="utf-8"?>
<!-- Generator: Adobe Illustrator 24.3.0, SVG Export Plug-In . SVG Version: 6.00 Build 0)  -->
<svg version="1.1" id="Layer_1" xmlns="http://www.w3.org/2000/svg" xmlns:xlink="http://www.w3.org/1999/xlink" x="0px" y="0px"
	 viewBox="0 0 500 500" style="enable-background:new 0 0 500 500;" xml:space="preserve">
<style type="text/css">
	.st0{fill:#ED1C24;}
</style>
<g>
	<path class="st0" d="M89.18,244.29c-3.01,0-5.45,2.44-5.45,5.45c0,3.01,2.44,5.45,5.45,5.45c3.01,0,5.45-2.44,5.45-5.45
		C94.63,246.73,92.19,244.29,89.18,244.29z"/>
	<path class="st0" d="M67.39,244.29c-3.01,0-5.45,2.44-5.45,5.45c0,3.01,2.44,5.45,5.45,5.45c3.01,0,5.45-2.44,5.45-5.45
		C72.84,246.73,70.4,244.29,67.39,244.29z"/>
	<polygon class="st0" points="219.29,231.58 280.24,231.58 280.24,220.67 274.79,220.67 208.38,220.67 208.38,244.28 208.38,255.19 
		208.38,278.8 280.24,278.8 280.24,267.89 219.29,267.89 219.29,255.19 269.35,255.19 269.35,244.28 219.29,244.28 	"/>
	<path class="st0" d="M424.15,220.65L424.15,220.65l-50.26,0v58.17h50.26c6.01,0,11.5-2.45,15.43-6.39
		c3.94-3.93,6.39-9.42,6.39-15.42v-14.55c0-6.01-2.45-11.5-6.39-15.43C435.64,223.1,430.16,220.65,424.15,220.65z M435.06,257.01
		c0,3.03-1.21,5.72-3.19,7.71c-1.99,1.98-4.68,3.19-7.71,3.19H384.8v-36.36l39.35,0v0c3.03,0,5.72,1.21,7.71,3.19
		c1.98,1.99,3.19,4.68,3.19,7.71V257.01z"/>
	<polygon class="st0" points="302.04,231.58 362.99,231.58 362.99,220.67 357.54,220.67 291.14,220.67 291.14,244.28 291.14,255.19 
		291.14,278.8 362.99,278.8 362.99,267.89 302.04,267.89 302.04,255.19 352.1,255.19 352.1,244.28 302.04,244.28 	"/>
	<path class="st0" d="M192.18,255.56c3.3-3.71,5.29-8.63,5.29-13.93c0-5.78-2.36-11.06-6.15-14.84c-3.78-3.79-9.06-6.15-14.84-6.15
		h-40.3v0l-10.91,0l0,58.24l10.91,0l0-11.3l34.89-4.18l12.49,15.39h13.93l-14.11-17.37C186.81,260.23,189.84,258.19,192.18,255.56z
		 M184.02,248.32c-1.6,1.79-3.79,3.01-6.34,3.32l-41.5,4.97v-16.54l0-8.5h40.3c2.8,0,5.28,1.12,7.12,2.95
		c1.83,1.84,2.95,4.32,2.95,7.12C186.56,244.19,185.61,246.52,184.02,248.32z"/>
	<path class="st0" d="M92.56,220.65L92.56,220.65l-28.55,0c-6.01,0-11.49,2.45-15.42,6.39c-3.94,3.93-6.39,9.42-6.39,15.42v14.54
		c0,6.01,2.45,11.49,6.39,15.42c3.93,3.94,9.42,6.39,15.43,6.39h28.55c6.01,0,11.5-2.45,15.43-6.39c3.94-3.93,6.39-9.42,6.39-15.42
		v-14.55c0-6.01-2.45-11.5-6.39-15.43C104.06,223.1,98.57,220.65,92.56,220.65z M103.47,257.01c0,3.03-1.21,5.72-3.19,7.71
		c-1.99,1.98-4.68,3.19-7.71,3.19H64.01c-3.03,0-5.72-1.21-7.71-3.19c-1.98-1.99-3.19-4.68-3.19-7.71v-14.54
		c0-3.03,1.21-5.72,3.19-7.71c1.99-1.98,4.68-3.19,7.71-3.19l28.55,0v0c3.03,0,5.72,1.21,7.71,3.19c1.98,1.99,3.19,4.68,3.19,7.71
		V257.01z"/>
	<path class="st0" d="M451.41,220.65L451.41,220.65c-3.01,0-5.45,2.44-5.45,5.45c0,3.01,2.43,5.44,5.44,5.45h0.01
		c3,0,5.44-2.44,5.44-5.45C456.86,223.09,454.42,220.65,451.41,220.65z M451.42,230.44h-0.01c-2.4-0.01-4.34-1.95-4.34-4.35
		c0-2.4,1.95-4.34,4.34-4.34h0c2.4,0,4.34,1.95,4.34,4.35C455.75,228.5,453.81,230.44,451.42,230.44z"/>
	<path class="st0" d="M453.32,227.11c-0.09-0.17-0.19-0.33-0.3-0.48c-0.15-0.2-0.34-0.36-0.58-0.44l-0.08-0.03l0.25-0.1
		c0.38-0.17,0.65-0.44,0.77-0.84c0.08-0.28,0.09-0.57,0.04-0.86c-0.04-0.26-0.13-0.5-0.31-0.69c-0.17-0.18-0.38-0.3-0.62-0.38
		c-0.36-0.12-0.73-0.16-1.1-0.16c-0.37,0-0.75,0-1.12,0c-0.36,0-0.72,0-1.08,0h-0.12l-0.04,0c0,1.9,0,3.8,0,5.7
		c0.49,0,0.98,0,1.47,0c0-0.72,0-1.43,0-2.16c0.22,0.01,0.43,0.01,0.64,0.03c0.22,0.02,0.4,0.13,0.53,0.31
		c0.08,0.11,0.15,0.22,0.21,0.33c0.24,0.48,0.48,0.96,0.71,1.44l0.08,0.05h0c0.25,0,0.51,0,0.76,0c0.19,0,0.39,0,0.58,0h0.17
		l-0.02-0.04C453.88,228.23,453.6,227.67,453.32,227.11z M451.94,225.19c-0.06,0.23-0.21,0.36-0.43,0.41
		c-0.1,0.03-0.21,0.04-0.32,0.05c-0.1,0-0.2,0-0.3,0c-0.12,0-0.24,0-0.35,0h-0.01l-0.03,0c0-0.49,0-0.97,0-1.46l0.03,0h0.01
		c0.12,0,0.24,0,0.35,0c0.1,0,0.2,0,0.29,0c0.12,0,0.24,0.02,0.36,0.05c0.21,0.05,0.34,0.19,0.4,0.4
		C451.99,224.83,451.99,225.01,451.94,225.19z"/>
</g>
</svg>
